mtllib E2-Exp-p01.mtl
g Part 1
usemtl 0.615686_0.811765_0.929412_0.000000_0.000000
o mesh0
v -0.105317 0.152149 0.08 
v -0.105317 0.152149 0 
v -0.185317 0.152149 0 
v -0.185317 0.152149 0.08 
vn 0 1 0 
vn 0 1 0 
vn 0 1 0 
vn 0 1 0 
f 1//1 2//2 3//3 
f 3//3 4//4 1//1 
o mesh1
v -0.185317 0.152149 0.08 
v -0.185317 0.152149 0 
v -0.185317 0.0721493 0 
v -0.185317 0.0721493 0.08 
vn -1 0 0 
vn -1 0 0 
vn -1 0 0 
vn -1 0 0 
f 5//5 6//6 7//7 
f 7//7 8//8 5//5 
o mesh2
v -0.185317 0.0721493 0.08 
v -0.185317 0.0721493 0 
v -0.105317 0.0721493 0 
v -0.105317 0.0721493 0.08 
vn 0 -1 0 
vn 0 -1 0 
vn 0 -1 0 
vn 0 -1 0 
f 9//9 10//10 11//11 
f 11//11 12//12 9//9 
o mesh3
v -0.105317 0.0721493 0.08 
v -0.105317 0.0721493 0 
v -0.105317 0.152149 0 
v -0.105317 0.152149 0.08 
vn 1 1.73472e-16 0 
vn 1 1.73472e-16 0 
vn 1 1.73472e-16 0 
vn 1 1.73472e-16 0 
f 13//13 14//14 15//15 
f 15//15 16//16 13//13 
o mesh4
v -0.105317 0.0721493 0.08 
v -0.105317 0.152149 0.08 
v -0.185317 0.152149 0.08 
v -0.185317 0.0721493 0.08 
vn 0 0 1 
vn 0 0 1 
vn 0 0 1 
vn 0 0 1 
f 17//17 18//18 19//19 
f 19//19 20//20 17//17 
o mesh5
v -0.185317 0.0721493 0 
v -0.185317 0.152149 0 
v -0.105317 0.152149 0 
v -0.105317 0.0721493 0 
vn 0 0 -1 
vn 0 0 -1 
vn 0 0 -1 
vn 0 0 -1 
f 21//21 22//22 23//23 
f 23//23 24//24 21//21 
