mtllib E2-Ejem01.mtl
g Part 1
usemtl 0.615686_0.811765_0.929412_0.000000_0.000000
o mesh0
v 0.07 -0.0740717 0 
v 0 -0.0740717 0 
v 0 0 0 
v 0.07 0 0 
vn 0 0 -1 
vn 0 0 -1 
vn 0 0 -1 
vn 0 0 -1 
f 1//1 2//2 3//3 
f 3//3 4//4 1//1 
o mesh1
v 0.07 0 0 
v 0 0 0 
v 0 0 0.0811413 
v 0.07 0 0.0811413 
vn 0 1 0 
vn 0 1 0 
vn 0 1 0 
vn 0 1 0 
f 5//5 6//6 7//7 
f 7//7 8//8 5//5 
o mesh2
v 0.07 0 0 
v 0.07 0 0.0811413 
v 0.07 -0.0224434 0.0811413 
v 0.07 -0.0740717 0.0283134 
v 0.07 -0.0740717 0 
vn 1 0 0 
vn 1 0 0 
vn 1 0 0 
vn 1 0 0 
vn 1 0 0 
f 9//9 10//10 11//11 
f 11//11 12//12 9//9 
f 12//12 13//13 9//9 
o mesh3
v 0 0 0.0811413 
v 0 -0.0224434 0.0811413 
v 0.045 -0.0224434 0.0811413 
v 0.07 0 0.0811413 
v 0.07 -0.0224434 0.0811413 
vn 0 0 1 
vn 0 0 1 
vn 0 0 1 
vn 0 0 1 
vn 0 0 1 
f 14//14 15//15 16//16 
f 16//16 17//17 14//14 
f 16//16 18//18 17//17 
o mesh4
v 0 -0.0740717 0 
v 0.07 -0.0740717 0 
v 0.045 -0.0740717 0.0283134 
v 0.07 -0.0740717 0.0283134 
v 0 -0.0740717 0.0283134 
vn 0 -1 0 
vn 0 -1 0 
vn 0 -1 0 
vn 0 -1 0 
vn 0 -1 0 
f 19//19 20//20 21//21 
f 20//20 22//22 21//21 
f 21//21 23//23 19//19 
o mesh5
v 0.07 -0.0224434 0.0811413 
v 0.045 -0.0224434 0.0811413 
v 0.045 -0.0740717 0.0283134 
v 0.07 -0.0740717 0.0283134 
vn 0 -0.71518 0.69894 
vn 0 -0.71518 0.69894 
vn 0 -0.71518 0.69894 
vn 0 -0.71518 0.69894 
f 24//24 25//25 26//26 
f 26//26 27//27 24//24 
o mesh6
v 0.045 -0.0224434 0.0811413 
v 0 -0.0224434 0.0811413 
v 0 -0.0224434 0.0519294 
v 0.045 -0.0224434 0.0519294 
vn 0 -1 0 
vn 0 -1 0 
vn 0 -1 0 
vn 0 -1 0 
f 28//28 29//29 30//30 
f 30//30 31//31 28//28 
o mesh7
v 0 0 0.0811413 
v 0 0 0 
v 0 -0.0224434 0.0519294 
v 0 -0.0462103 0.0283134 
v 0 -0.0462103 0.0519294 
v 0 -0.0740717 0 
v 0 -0.0740717 0.0283134 
v 0 -0.0224434 0.0811413 
vn -1 0 0 
vn -1 0 0 
vn -1 0 0 
vn -1 0 0 
vn -1 0 0 
vn -1 0 0 
vn -1 0 0 
vn -1 0 0 
f 32//32 33//33 34//34 
f 34//34 33//33 35//35 
f 35//35 36//36 34//34 
f 37//37 38//38 35//35 
f 35//35 33//33 37//37 
f 34//34 39//39 32//32 
o mesh8
v 0.045 -0.0740717 0.0283134 
v 0.045 -0.0224434 0.0811413 
v 0.045 -0.0462103 0.0519294 
v 0.045 -0.0224434 0.0519294 
v 0.045 -0.0462103 0.0283134 
vn -1 0 0 
vn -1 0 0 
vn -1 0 0 
vn -1 0 0 
vn -1 0 0 
f 40//40 41//41 42//42 
f 41//41 43//43 42//42 
f 42//42 44//44 40//40 
o mesh9
v 0.045 -0.0224434 0.0519294 
v 0 -0.0224434 0.0519294 
v 0 -0.0462103 0.0519294 
v 0.045 -0.0462103 0.0519294 
vn 0 0 1 
vn 0 0 1 
vn 0 0 1 
vn 0 0 1 
f 45//45 46//46 47//47 
f 47//47 48//48 45//45 
o mesh10
v 0.045 -0.0462103 0.0519294 
v 0 -0.0462103 0.0519294 
v 0 -0.0462103 0.0283134 
v 0.045 -0.0462103 0.0283134 
vn 0 -1 0 
vn 0 -1 0 
vn 0 -1 0 
vn 0 -1 0 
f 49//49 50//50 51//51 
f 51//51 52//52 49//49 
o mesh11
v 0.045 -0.0462103 0.0283134 
v 0 -0.0462103 0.0283134 
v 0 -0.0740717 0.0283134 
v 0.045 -0.0740717 0.0283134 
vn 0 0 1 
vn 0 0 1 
vn 0 0 1 
vn 0 0 1 
f 53//53 54//54 55//55 
f 55//55 56//56 53//53 
