mtllib E2-Pieza-01.mtl
g Part 1
usemtl 0.615686_0.811765_0.929412_0.000000_0.000000
o mesh0
v 0.01 0.01 0 
v 0.01 -0.01 0 
v -0.01 -0.01 0 
v -0.01 0.01 0 
vn 0 0 -1 
vn 0 0 -1 
vn 0 0 -1 
vn 0 0 -1 
f 1//1 2//2 3//3 
f 3//3 4//4 1//1 
o mesh1
v -0.01 -0.01 0.015 
v -0.01 -0.01 0 
v -0.005 -0.01 0.005 
v 0.01 -0.01 0 
v 0.005 -0.01 0.005 
v 0.01 -0.01 0.015 
v 0.005 -0.01 0.015 
v -0.005 -0.01 0.015 
vn 1.73472e-16 -1 0 
vn 1.73472e-16 -1 0 
vn 1.73472e-16 -1 0 
vn 1.73472e-16 -1 0 
vn 1.73472e-16 -1 0 
vn 1.73472e-16 -1 0 
vn 1.73472e-16 -1 0 
vn 1.73472e-16 -1 0 
f 5//5 6//6 7//7 
f 6//6 8//8 9//9 
f 9//9 7//7 6//6 
f 10//10 11//11 9//9 
f 9//9 8//8 10//10 
f 7//7 12//12 5//5 
o mesh2
v -0.005 -0.01 0.015 
v -0.005 -0.01 0.005 
v -0.005 -0.005 0.005 
v -0.005 -0.005 0.015 
vn 1 0 0 
vn 1 0 0 
vn 1 0 0 
vn 1 0 0 
f 13//13 14//14 15//15 
f 15//15 16//16 13//13 
o mesh3
v -0.005 -0.005 0.015 
v -0.005 -0.005 0.005 
v -0.01 -0.005 0.005 
v -0.01 -0.005 0.015 
vn 0 1 0 
vn 0 1 0 
vn 0 1 0 
vn 0 1 0 
f 17//17 18//18 19//19 
f 19//19 20//20 17//17 
o mesh4
v -0.005 -0.01 0.015 
v -0.005 -0.005 0.015 
v -0.01 -0.005 0.015 
v -0.01 -0.01 0.015 
vn 0 0 1 
vn 0 0 1 
vn 0 0 1 
vn 0 0 1 
f 21//21 22//22 23//23 
f 23//23 24//24 21//21 
o mesh5
v 0.005 -0.005 0.015 
v 0.005 -0.005 0.005 
v 0.005 -0.01 0.005 
v 0.005 -0.01 0.015 
vn -1 -1.73472e-16 0 
vn -1 -1.73472e-16 0 
vn -1 -1.73472e-16 0 
vn -1 -1.73472e-16 0 
f 25//25 26//26 27//27 
f 27//27 28//28 25//25 
o mesh6
v 0.01 -0.005 0.015 
v 0.01 -0.005 0.005 
v 0.005 -0.005 0.005 
v 0.005 -0.005 0.015 
vn 0 1 0 
vn 0 1 0 
vn 0 1 0 
vn 0 1 0 
f 29//29 30//30 31//31 
f 31//31 32//32 29//29 
o mesh7
v 0.005 -0.01 0.015 
v 0.01 -0.01 0.015 
v 0.01 -0.005 0.015 
v 0.005 -0.005 0.015 
vn 0 0 1 
vn 0 0 1 
vn 0 0 1 
vn 0 0 1 
f 33//33 34//34 35//35 
f 35//35 36//36 33//33 
o mesh8
v 0.01 -0.01 0.015 
v 0.01 -0.01 0 
v 0.01 -0.005 0.005 
v 0.01 0.01 0 
v 0.01 0.005 0.005 
v 0.01 0.01 0.015 
v 0.01 0.005 0.015 
v 0.01 -0.005 0.015 
vn 1 1.73472e-16 0 
vn 1 1.73472e-16 0 
vn 1 1.73472e-16 0 
vn 1 1.73472e-16 0 
vn 1 1.73472e-16 0 
vn 1 1.73472e-16 0 
vn 1 1.73472e-16 0 
vn 1 1.73472e-16 0 
f 37//37 38//38 39//39 
f 38//38 40//40 41//41 
f 41//41 39//39 38//38 
f 42//42 43//43 41//41 
f 41//41 40//40 42//42 
f 39//39 44//44 37//37 
o mesh9
v 0.005 0.005 0.015 
v 0.005 0.005 0.005 
v 0.01 0.005 0.005 
v 0.01 0.005 0.015 
vn 1.73472e-16 -1 0 
vn 1.73472e-16 -1 0 
vn 1.73472e-16 -1 0 
vn 1.73472e-16 -1 0 
f 45//45 46//46 47//47 
f 47//47 48//48 45//45 
o mesh10
v 0.005 0.01 0.015 
v 0.005 0.01 0.005 
v 0.005 0.005 0.005 
v 0.005 0.005 0.015 
vn -1 -3.46945e-16 0 
vn -1 -3.46945e-16 0 
vn -1 -3.46945e-16 0 
vn -1 -3.46945e-16 0 
f 49//49 50//50 51//51 
f 51//51 52//52 49//49 
o mesh11
v 0.005 0.01 0.015 
v 0.005 0.005 0.015 
v 0.01 0.005 0.015 
v 0.01 0.01 0.015 
vn 0 0 1 
vn 0 0 1 
vn 0 0 1 
vn 0 0 1 
f 53//53 54//54 55//55 
f 55//55 56//56 53//53 
o mesh12
v -0.005 0.01 0.005 
v -0.005 0.005 0.005 
v 0.005 0.005 0.005 
v 0.005 -0.01 0.005 
v 0.005 -0.005 0.005 
v -0.005 -0.005 0.005 
v 0.01 0.005 0.005 
v -0.01 -0.005 0.005 
v 0.01 -0.005 0.005 
v -0.01 0.005 0.005 
v -0.005 -0.01 0.005 
v 0.005 0.01 0.005 
vn 0 0 1 
vn 0 0 1 
vn 0 0 1 
vn 0 0 1 
vn 0 0 1 
vn 0 0 1 
vn 0 0 1 
vn 0 0 1 
vn 0 0 1 
vn 0 0 1 
vn 0 0 1 
vn 0 0 1 
f 57//57 58//58 59//59 
f 60//60 61//61 62//62 
f 58//58 61//61 59//59 
f 63//63 59//59 61//61 
f 61//61 58//58 62//62 
f 64//64 62//62 58//58 
f 61//61 65//65 63//63 
f 58//58 66//66 64//64 
f 62//62 67//67 60//60 
f 59//59 68//68 57//57 
o mesh13
v 0.01 0.01 0.015 
v 0.01 0.01 0 
v 0.005 0.01 0.005 
v -0.01 0.01 0 
v -0.005 0.01 0.005 
v -0.01 0.01 0.015 
v -0.005 0.01 0.015 
v 0.005 0.01 0.015 
vn -1.73472e-16 1 0 
vn -1.73472e-16 1 0 
vn -1.73472e-16 1 0 
vn -1.73472e-16 1 0 
vn -1.73472e-16 1 0 
vn -1.73472e-16 1 0 
vn -1.73472e-16 1 0 
vn -1.73472e-16 1 0 
f 69//69 70//70 71//71 
f 70//70 72//72 73//73 
f 73//73 71//71 70//70 
f 74//74 75//75 73//73 
f 73//73 72//72 74//74 
f 71//71 76//76 69//69 
o mesh14
v -0.01 0.01 0.015 
v -0.01 0.01 0 
v -0.01 0.005 0.005 
v -0.01 -0.01 0 
v -0.01 -0.005 0.005 
v -0.01 -0.01 0.015 
v -0.01 -0.005 0.015 
v -0.01 0.005 0.015 
vn -1 -1.73472e-16 0 
vn -1 -1.73472e-16 0 
vn -1 -1.73472e-16 0 
vn -1 -1.73472e-16 0 
vn -1 -1.73472e-16 0 
vn -1 -1.73472e-16 0 
vn -1 -1.73472e-16 0 
vn -1 -1.73472e-16 0 
f 77//77 78//78 79//79 
f 78//78 80//80 81//81 
f 81//81 79//79 78//78 
f 82//82 83//83 81//81 
f 81//81 80//80 82//82 
f 79//79 84//84 77//77 
o mesh15
v -0.01 0.005 0.015 
v -0.01 0.005 0.005 
v -0.005 0.005 0.005 
v -0.005 0.005 0.015 
vn 0 -1 0 
vn 0 -1 0 
vn 0 -1 0 
vn 0 -1 0 
f 85//85 86//86 87//87 
f 87//87 88//88 85//85 
o mesh16
v -0.005 0.005 0.015 
v -0.005 0.005 0.005 
v -0.005 0.01 0.005 
v -0.005 0.01 0.015 
vn 1 0 0 
vn 1 0 0 
vn 1 0 0 
vn 1 0 0 
f 89//89 90//90 91//91 
f 91//91 92//92 89//89 
o mesh17
v -0.005 0.01 0.015 
v -0.01 0.01 0.015 
v -0.01 0.005 0.015 
v -0.005 0.005 0.015 
vn 0 0 1 
vn 0 0 1 
vn 0 0 1 
vn 0 0 1 
f 93//93 94//94 95//95 
f 95//95 96//96 93//93 
