mtllib E2-Rep07-p03.mtl
g Part 3
usemtl 0.231373_0.380392_0.705882_0.000000_0.000000
o mesh0
v 0.025 0.02 0.03 
v 0.025 0.02 0 
v 0.015 0.02 0 
v 0.015 0.02 0.03 
vn 0 1 0 
vn 0 1 0 
vn 0 1 0 
vn 0 1 0 
f 1//1 2//2 3//3 
f 3//3 4//4 1//1 
o mesh1
v 0.015 0.02 0 
v 0.025 0.02 0 
v 0.025 -0.02 0 
v 0.015 -0.02 0 
vn 0 0 -1 
vn 0 0 -1 
vn 0 0 -1 
vn 0 0 -1 
f 5//5 6//6 7//7 
f 7//7 8//8 5//5 
o mesh2
v 0.025 0.02 0 
v 0.025 -4.33681e-18 0.03 
v 0.025 -0.02 0.01 
v 0.025 0.02 0.03 
v 0.025 -0.02 0 
vn 1 -1.73472e-16 0 
vn 1 -1.73472e-16 0 
vn 1 -1.73472e-16 0 
vn 1 -1.73472e-16 0 
vn 1 -1.73472e-16 0 
f 9//9 10//10 11//11 
f 9//9 12//12 10//10 
f 11//11 13//13 9//9 
o mesh3
v 0.015 0.02 0 
v 0.015 -0.02 0.01 
v 0.015 -5.20417e-18 0.03 
v 0.015 -0.02 0 
v 0.015 0.02 0.03 
vn -1 -8.67362e-17 0 
vn -1 -8.67362e-17 0 
vn -1 -8.67362e-17 0 
vn -1 -8.67362e-17 0 
vn -1 -8.67362e-17 0 
f 14//14 15//15 16//16 
f 14//14 17//17 15//15 
f 16//16 18//18 14//14 
o mesh4
v 0.015 -0.02 0.01 
v 0.015 -0.02 0 
v 0.025 -0.02 0 
v 0.025 -0.02 0.01 
vn 0 -1 0 
vn 0 -1 0 
vn 0 -1 0 
vn 0 -1 0 
f 19//19 20//20 21//21 
f 21//21 22//22 19//19 
o mesh5
v 0.015 -5.20417e-18 0.03 
v 0.015 -0.02 0.01 
v 0.025 -0.02 0.01 
v 0.025 -4.33681e-18 0.03 
vn 6.13317e-17 -0.707107 0.707107 
vn 6.13317e-17 -0.707107 0.707107 
vn 6.13317e-17 -0.707107 0.707107 
vn 6.13317e-17 -0.707107 0.707107 
f 23//23 24//24 25//25 
f 25//25 26//26 23//23 
o mesh6
v 0.015 0.02 0.03 
v 0.015 -5.20417e-18 0.03 
v 0.025 -4.33681e-18 0.03 
v 0.025 0.02 0.03 
vn 0 0 1 
vn 0 0 1 
vn 0 0 1 
vn 0 0 1 
f 27//27 28//28 29//29 
f 29//29 30//30 27//27 
