mtllib E2-Rep07-p02.mtl
g Part 2
usemtl 0.647059_0.647059_0.647059_0.000000_0.000000
o mesh0
v -0.025 0.02 0.03 
v -0.025 -0.01 0.01 
v -0.025 0.02 0.01 
vn 1 -1.73472e-16 0 
vn 1 -1.73472e-16 0 
vn 1 -1.73472e-16 0 
f 1//1 2//2 3//3 
o mesh1
v -0.025 0.02 0.03 
v -0.045 0.02 0.03 
v -0.045 -0.01 0.01 
v -0.025 -0.01 0.01 
vn -9.62251e-17 -0.5547 0.83205 
vn -9.62251e-17 -0.5547 0.83205 
vn -9.62251e-17 -0.5547 0.83205 
vn -9.62251e-17 -0.5547 0.83205 
f 4//4 5//5 6//6 
f 6//6 7//7 4//4 
o mesh2
v -0.045 -0.02 0.01 
v -0.015 -0.02 0.01 
v -0.025 -0.01 0.01 
v -0.015 0.02 0.01 
v -0.025 0.02 0.01 
v -0.045 -0.01 0.01 
vn 0 0 1 
vn 0 0 1 
vn 0 0 1 
vn 0 0 1 
vn 0 0 1 
vn 0 0 1 
f 8//8 9//9 10//10 
f 11//11 12//12 10//10 
f 10//10 9//9 11//11 
f 10//10 13//13 8//8 
o mesh3
v -0.015 0.02 0 
v -0.045 0.02 0 
v -0.025 0.02 0.01 
v -0.045 0.02 0.03 
v -0.025 0.02 0.03 
v -0.015 0.02 0.01 
vn 3.46945e-16 1 0 
vn 3.46945e-16 1 0 
vn 3.46945e-16 1 0 
vn 3.46945e-16 1 0 
vn 3.46945e-16 1 0 
vn 3.46945e-16 1 0 
f 14//14 15//15 16//16 
f 17//17 18//18 16//16 
f 16//16 15//15 17//17 
f 16//16 19//19 14//14 
o mesh4
v -0.045 -0.02 0 
v -0.045 -0.02 0.01 
v -0.045 -0.01 0.01 
v -0.045 0.02 0 
v -0.045 0.02 0.03 
vn -1 1.73472e-16 0 
vn -1 1.73472e-16 0 
vn -1 1.73472e-16 0 
vn -1 1.73472e-16 0 
vn -1 1.73472e-16 0 
f 20//20 21//21 22//22 
f 22//22 23//23 20//20 
f 22//22 24//24 23//23 
o mesh5
v -0.015 -0.02 0.01 
v -0.015 -0.02 0 
v -0.015 0.02 0 
v -0.015 0.02 0.01 
vn 1 -1.73472e-16 0 
vn 1 -1.73472e-16 0 
vn 1 -1.73472e-16 0 
vn 1 -1.73472e-16 0 
f 25//25 26//26 27//27 
f 27//27 28//28 25//25 
o mesh6
v -0.045 -0.02 0.01 
v -0.045 -0.02 0 
v -0.015 -0.02 0 
v -0.015 -0.02 0.01 
vn -3.46945e-16 -1 0 
vn -3.46945e-16 -1 0 
vn -3.46945e-16 -1 0 
vn -3.46945e-16 -1 0 
f 29//29 30//30 31//31 
f 31//31 32//32 29//29 
o mesh7
v -0.045 0.02 0 
v -0.015 0.02 0 
v -0.015 -0.02 0 
v -0.045 -0.02 0 
vn 0 0 -1 
vn 0 0 -1 
vn 0 0 -1 
vn 0 0 -1 
f 33//33 34//34 35//35 
f 35//35 36//36 33//33 
