mtllib E2-Rep07-p04.mtl
g Part 4
usemtl 0.917647_0.917647_0.917647_0.000000_0.000000
o mesh0
v 0.055 -0.02 0.01 
v 0.055 -0.02 0 
v 0.085 -0.02 0 
v 0.085 -0.02 0.01 
vn 0 -1 0 
vn 0 -1 0 
vn 0 -1 0 
vn 0 -1 0 
f 1//1 2//2 3//3 
f 3//3 4//4 1//1 
o mesh1
v 0.085 -0.02 0.01 
v 0.085 -0.02 0 
v 0.085 0.02 0 
v 0.085 0.02 0.01 
vn 1 0 0 
vn 1 0 0 
vn 1 0 0 
vn 1 0 0 
f 5//5 6//6 7//7 
f 7//7 8//8 5//5 
o mesh2
v 0.085 0.02 0.01 
v 0.085 0.02 0 
v 0.055 0.02 0 
v 0.055 0.02 0.01 
vn 0 1 0 
vn 0 1 0 
vn 0 1 0 
vn 0 1 0 
f 9//9 10//10 11//11 
f 11//11 12//12 9//9 
o mesh3
v 0.055 0.02 0.01 
v 0.055 0.02 0 
v 0.055 -0.02 0 
v 0.055 -0.02 0.01 
vn -1 3.46945e-16 0 
vn -1 3.46945e-16 0 
vn -1 3.46945e-16 0 
vn -1 3.46945e-16 0 
f 13//13 14//14 15//15 
f 15//15 16//16 13//13 
o mesh4
v 0.085 0.02 0 
v 0.085 -0.02 0 
v 0.055 -0.02 0 
v 0.055 0.02 0 
vn 0 0 -1 
vn 0 0 -1 
vn 0 0 -1 
vn 0 0 -1 
f 17//17 18//18 19//19 
f 19//19 20//20 17//17 
o mesh5
v 0.055 0.02 0.01 
v 0.065 0.01 0.01 
v 0.075 0.01 0.01 
v 0.055 -0.02 0.01 
v 0.065 -0.01 0.01 
v 0.085 -0.02 0.01 
v 0.075 -0.01 0.01 
v 0.085 0.02 0.01 
vn 0 0 1 
vn 0 0 1 
vn 0 0 1 
vn 0 0 1 
vn 0 0 1 
vn 0 0 1 
vn 0 0 1 
vn 0 0 1 
f 21//21 22//22 23//23 
f 21//21 24//24 25//25 
f 24//24 26//26 27//27 
f 26//26 28//28 23//23 
f 25//25 22//22 21//21 
f 23//23 27//27 26//26 
f 27//27 25//25 24//24 
f 23//23 28//28 21//21 
o mesh6
v 0.065 -0.01 0.03 
v 0.065 -0.01 0.01 
v 0.075 -0.01 0.01 
v 0.075 -0.01 0.03 
vn 0 -1 0 
vn 0 -1 0 
vn 0 -1 0 
vn 0 -1 0 
f 29//29 30//30 31//31 
f 31//31 32//32 29//29 
o mesh7
v 0.075 -0.01 0.03 
v 0.075 -0.01 0.01 
v 0.075 0.01 0.01 
v 0.075 0.01 0.03 
vn 1 0 0 
vn 1 0 0 
vn 1 0 0 
vn 1 0 0 
f 33//33 34//34 35//35 
f 35//35 36//36 33//33 
o mesh8
v 0.075 0.01 0.03 
v 0.075 0.01 0.01 
v 0.065 0.01 0.01 
v 0.065 0.01 0.03 
vn 0 1 0 
vn 0 1 0 
vn 0 1 0 
vn 0 1 0 
f 37//37 38//38 39//39 
f 39//39 40//40 37//37 
o mesh9
v 0.065 0.01 0.03 
v 0.065 0.01 0.01 
v 0.065 -0.01 0.01 
v 0.065 -0.01 0.03 
vn -1 0 0 
vn -1 0 0 
vn -1 0 0 
vn -1 0 0 
f 41//41 42//42 43//43 
f 43//43 44//44 41//41 
o mesh10
v 0.065 0.01 0.03 
v 0.065 -0.01 0.03 
v 0.075 -0.01 0.03 
v 0.075 0.01 0.03 
vn 0 0 1 
vn 0 0 1 
vn 0 0 1 
vn 0 0 1 
f 45//45 46//46 47//47 
f 47//47 48//48 45//45 
