mtllib E2-Soma-p07.mtl
g Pieza 07
usemtl 0.866667_0.321569_0.156863_0.000000_0.000000
o mesh0
v 0.027 -0.027 0.036 
v 0.027 -0.045 0.036 
v 0.009 -0.045 0.036 
v 0.009 -0.027 0.036 
vn -5.78241e-16 -1.39318e-31 -1 
vn -5.78241e-16 -1.39318e-31 -1 
vn -5.78241e-16 -1.39318e-31 -1 
vn -5.78241e-16 -1.39318e-31 -1 
f 1//1 2//2 3//3 
f 3//3 4//4 1//1 
o mesh1
v 0.027 -0.027 0.054 
v 0.027 -0.027 0.036 
v 0.009 -0.027 0.036 
v 0.009 -0.027 0.054 
vn 3.85494e-16 1 0 
vn 3.85494e-16 1 0 
vn 3.85494e-16 1 0 
vn 3.85494e-16 1 0 
f 5//5 6//6 7//7 
f 7//7 8//8 5//5 
o mesh2
v 0.009 -0.045 0.054 
v 0.009 -0.027 0.054 
v 0.009 -0.027 0.036 
v 0.009 -0.045 0.036 
vn -1 -1.92747e-16 0 
vn -1 -1.92747e-16 0 
vn -1 -1.92747e-16 0 
vn -1 -1.92747e-16 0 
f 9//9 10//10 11//11 
f 11//11 12//12 9//9 
o mesh3
v -0.009 -0.063 0.054 
v 0.027 -0.063 0.054 
v 0.009 -0.045 0.054 
v 0.027 -0.027 0.054 
v 0.009 -0.027 0.054 
v -0.009 -0.045 0.054 
vn 0 0 1 
vn 0 0 1 
vn 0 0 1 
vn 0 0 1 
vn 0 0 1 
vn 0 0 1 
f 13//13 14//14 15//15 
f 16//16 17//17 15//15 
f 15//15 14//14 16//16 
f 15//15 18//18 13//13 
o mesh4
v 0.027 -0.027 0.054 
v 0.027 -0.063 0.054 
v 0.027 -0.045 0.036 
v 0.027 -0.063 0.018 
v 0.027 -0.045 0.018 
v 0.027 -0.027 0.036 
vn 1 0 0 
vn 1 0 0 
vn 1 0 0 
vn 1 0 0 
vn 1 0 0 
vn 1 0 0 
f 19//19 20//20 21//21 
f 22//22 23//23 21//21 
f 21//21 20//20 22//22 
f 21//21 24//24 19//19 
o mesh5
v 0.009 -0.045 0.054 
v 0.009 -0.045 0.036 
v -0.009 -0.045 0.036 
v -0.009 -0.045 0.054 
vn -2.40934e-16 1 0 
vn -2.40934e-16 1 0 
vn -2.40934e-16 1 0 
vn -2.40934e-16 1 0 
f 25//25 26//26 27//27 
f 27//27 28//28 25//25 
o mesh6
v -0.009 -0.045 0.054 
v -0.009 -0.045 0.036 
v -0.009 -0.063 0.036 
v -0.009 -0.063 0.054 
vn -1 -1.92747e-16 0 
vn -1 -1.92747e-16 0 
vn -1 -1.92747e-16 0 
vn -1 -1.92747e-16 0 
f 29//29 30//30 31//31 
f 31//31 32//32 29//29 
o mesh7
v 0.027 -0.063 0.018 
v 0.027 -0.063 0.054 
v 0.009 -0.063 0.036 
v -0.009 -0.063 0.054 
v -0.009 -0.063 0.036 
v 0.009 -0.063 0.018 
vn 1.92747e-16 -1 0 
vn 1.92747e-16 -1 0 
vn 1.92747e-16 -1 0 
vn 1.92747e-16 -1 0 
vn 1.92747e-16 -1 0 
vn 1.92747e-16 -1 0 
f 33//33 34//34 35//35 
f 36//36 37//37 35//35 
f 35//35 34//34 36//36 
f 35//35 38//38 33//33 
o mesh8
v -0.009 -0.045 0.036 
v 0.009 -0.045 0.036 
v 0.009 -0.063 0.036 
v -0.009 -0.063 0.036 
vn -5.78241e-16 -1.39318e-31 -1 
vn -5.78241e-16 -1.39318e-31 -1 
vn -5.78241e-16 -1.39318e-31 -1 
vn -5.78241e-16 -1.39318e-31 -1 
f 39//39 40//40 41//41 
f 41//41 42//42 39//39 
o mesh9
v 0.009 -0.063 0.018 
v 0.009 -0.045 0.018 
v 0.027 -0.045 0.018 
v 0.027 -0.063 0.018 
vn -5.78241e-16 -1.39318e-31 -1 
vn -5.78241e-16 -1.39318e-31 -1 
vn -5.78241e-16 -1.39318e-31 -1 
vn -5.78241e-16 -1.39318e-31 -1 
f 43//43 44//44 45//45 
f 45//45 46//46 43//43 
o mesh10
v 0.009 -0.063 0.036 
v 0.009 -0.045 0.036 
v 0.009 -0.045 0.018 
v 0.009 -0.063 0.018 
vn -1 -2.89121e-16 5.78241e-16 
vn -1 -2.89121e-16 5.78241e-16 
vn -1 -2.89121e-16 5.78241e-16 
vn -1 -2.89121e-16 5.78241e-16 
f 47//47 48//48 49//49 
f 49//49 50//50 47//47 
o mesh11
v 0.009 -0.045 0.036 
v 0.027 -0.045 0.036 
v 0.027 -0.045 0.018 
v 0.009 -0.045 0.018 
vn -1.92747e-16 1 -2.78636e-32 
vn -1.92747e-16 1 -2.78636e-32 
vn -1.92747e-16 1 -2.78636e-32 
vn -1.92747e-16 1 -2.78636e-32 
f 51//51 52//52 53//53 
f 53//53 54//54 51//51 
