mtllib E3-ActFin08-p02.mtl
g Part 2
usemtl 0.764706_0.545098_0.803922_0.000000_0.000000
o mesh0
v 0.08 0 0.055 
v 0.04 0 0.055 
v 0.04 0 0.01 
v 0.08 0 0.01 
vn 0 -1 0 
vn 0 -1 0 
vn 0 -1 0 
vn 0 -1 0 
f 1//1 2//2 3//3 
f 3//3 4//4 1//1 
o mesh1
v 0.04 0.01 0.055 
v 0.04 0 0.055 
v 0.08 0 0.055 
v 0.08 0.01 0.055 
vn 0 0 1 
vn 0 0 1 
vn 0 0 1 
vn 0 0 1 
f 5//5 6//6 7//7 
f 7//7 8//8 5//5 
o mesh2
v 0.08 0.01 0 
v 0.04 0.01 0 
v 0.04 0.01 0.055 
v 0.08 0.01 0.055 
vn 0 1 0 
vn 0 1 0 
vn 0 1 0 
vn 0 1 0 
f 9//9 10//10 11//11 
f 11//11 12//12 9//9 
o mesh3
v 0.04 0.01 0.055 
v 0.04 0.01 0 
v 0.04 0 0.01 
v 0.04 -0.035 0 
v 0.04 -0.035 0.01 
v 0.04 0 0.055 
vn -1 0 -3.78485e-16 
vn -1 0 -3.78485e-16 
vn -1 0 -3.78485e-16 
vn -1 0 -3.78485e-16 
vn -1 0 -3.78485e-16 
vn -1 0 -3.78485e-16 
f 13//13 14//14 15//15 
f 16//16 17//17 15//15 
f 15//15 14//14 16//16 
f 15//15 18//18 13//13 
o mesh4
v 0.08 -0.035 0 
v 0.08 0.01 0 
v 0.08 0 0.01 
v 0.08 0.01 0.055 
v 0.08 0 0.055 
v 0.08 -0.035 0.01 
vn 1 0 2.52323e-16 
vn 1 0 2.52323e-16 
vn 1 0 2.52323e-16 
vn 1 0 2.52323e-16 
vn 1 0 2.52323e-16 
vn 1 0 2.52323e-16 
f 19//19 20//20 21//21 
f 22//22 23//23 21//21 
f 21//21 20//20 22//22 
f 21//21 24//24 19//19 
o mesh5
v 0.0675 -0.035 0.01 
v 0.0675 -0.035 0 
v 0.08 -0.035 0 
v 0.08 -0.035 0.01 
vn 0 -1 0 
vn 0 -1 0 
vn 0 -1 0 
vn 0 -1 0 
f 25//25 26//26 27//27 
f 27//27 28//28 25//25 
o mesh6
v 0.0675 -0.045 0.01 
v 0.0675 -0.045 0 
v 0.0675 -0.035 0 
v 0.0675 -0.035 0.01 
vn 1 0 2.52323e-16 
vn 1 0 2.52323e-16 
vn 1 0 2.52323e-16 
vn 1 0 2.52323e-16 
f 29//29 30//30 31//31 
f 31//31 32//32 29//29 
o mesh7
v 0.04 0.01 0 
v 0.0675 -0.035 0 
v 0.0525 -0.035 0 
v 0.0525 -0.045 0 
v 0.0675 -0.045 0 
v 0.08 0.01 0 
v 0.08 -0.035 0 
v 0.04 -0.035 0 
vn 0 0 -1 
vn 0 0 -1 
vn 0 0 -1 
vn 0 0 -1 
vn 0 0 -1 
vn 0 0 -1 
vn 0 0 -1 
vn 0 0 -1 
f 33//33 34//34 35//35 
f 36//36 35//35 34//34 
f 34//34 37//37 36//36 
f 38//38 39//39 34//34 
f 34//34 33//33 38//38 
f 35//35 40//40 33//33 
o mesh8
v 0.08 0 0.01 
v 0.0525 -0.035 0.01 
v 0.0675 -0.035 0.01 
v 0.0675 -0.045 0.01 
v 0.0525 -0.045 0.01 
v 0.04 0 0.01 
v 0.04 -0.035 0.01 
v 0.08 -0.035 0.01 
vn 0 0 1 
vn 0 0 1 
vn 0 0 1 
vn 0 0 1 
vn 0 0 1 
vn 0 0 1 
vn 0 0 1 
vn 0 0 1 
f 41//41 42//42 43//43 
f 44//44 43//43 42//42 
f 42//42 45//45 44//44 
f 46//46 47//47 42//42 
f 42//42 41//41 46//46 
f 43//43 48//48 41//41 
o mesh9
v 0.0525 -0.045 0.01 
v 0.0525 -0.045 0 
v 0.0675 -0.045 0 
v 0.0675 -0.045 0.01 
vn 0 -1 0 
vn 0 -1 0 
vn 0 -1 0 
vn 0 -1 0 
f 49//49 50//50 51//51 
f 51//51 52//52 49//49 
o mesh10
v 0.0525 -0.035 0.01 
v 0.0525 -0.035 0 
v 0.0525 -0.045 0 
v 0.0525 -0.045 0.01 
vn -1 0 0 
vn -1 0 0 
vn -1 0 0 
vn -1 0 0 
f 53//53 54//54 55//55 
f 55//55 56//56 53//53 
o mesh11
v 0.04 -0.035 0.01 
v 0.04 -0.035 0 
v 0.0525 -0.035 0 
v 0.0525 -0.035 0.01 
vn 0 -1 0 
vn 0 -1 0 
vn 0 -1 0 
vn 0 -1 0 
f 57//57 58//58 59//59 
f 59//59 60//60 57//57 
