mtllib E3-Anl01-p02.mtl
g Part 2
usemtl 0.764706_0.545098_0.803922_0.000000_0.000000
o mesh0
v -0.025 -0.02 0 
v -0.025 0 0 
v -0.005 0 0 
v -0.005 -0.02 0 
vn 0 0 -1 
vn 0 0 -1 
vn 0 0 -1 
vn 0 0 -1 
f 1//1 2//2 3//3 
f 3//3 4//4 1//1 
o mesh1
v -0.005 -0.02 0 
v -0.005 0 0 
v -0.005 0 0.005 
v -0.005 -0.02 0.005 
vn 1 0 3.46945e-16 
vn 1 0 3.46945e-16 
vn 1 0 3.46945e-16 
vn 1 0 3.46945e-16 
f 5//5 6//6 7//7 
f 7//7 8//8 5//5 
o mesh2
v -0.025 -0.02 0 
v -0.005 -0.02 0.005 
v -0.015 -0.02 0.02 
v -0.005 -0.02 0 
v -0.025 -0.02 0.02 
vn 0 -1 0 
vn 0 -1 0 
vn 0 -1 0 
vn 0 -1 0 
vn 0 -1 0 
f 9//9 10//10 11//11 
f 9//9 12//12 10//10 
f 11//11 13//13 9//9 
o mesh3
v -0.025 0 0 
v -0.025 0 0.02 
v -0.015 0 0.02 
v -0.005 0 0.005 
v -0.005 0 0 
vn 0 1 0 
vn 0 1 0 
vn 0 1 0 
vn 0 1 0 
vn 0 1 0 
f 14//14 15//15 16//16 
f 16//16 17//17 14//14 
f 17//17 18//18 14//14 
o mesh4
v -0.005 -0.02 0.005 
v -0.005 0 0.005 
v -0.015 0 0.02 
v -0.015 -0.02 0.02 
vn 0.83205 0 0.5547 
vn 0.83205 0 0.5547 
vn 0.83205 0 0.5547 
vn 0.83205 0 0.5547 
f 19//19 20//20 21//21 
f 21//21 22//22 19//19 
o mesh5
v -0.015 -0.02 0.02 
v -0.015 0 0.02 
v -0.025 0 0.02 
v -0.025 -0.02 0.02 
vn 0 0 1 
vn 0 0 1 
vn 0 0 1 
vn 0 0 1 
f 23//23 24//24 25//25 
f 25//25 26//26 23//23 
o mesh6
v -0.025 -0.02 0.02 
v -0.025 0 0.02 
v -0.025 0 0 
v -0.025 -0.02 0 
vn -1 0 0 
vn -1 0 0 
vn -1 0 0 
vn -1 0 0 
f 27//27 28//28 29//29 
f 29//29 30//30 27//27 
