mtllib E3-ActFin01.mtl
g Part 1
usemtl 0.980392_0.796078_0.262745_0.000000_0.000000
o mesh0
v 0.015 -0.005 0.04 
v 0.015 -0.04 0.005 
v 0.015 -0.04 0.04 
vn -1 0 -2.60209e-16 
vn -1 0 -2.60209e-16 
vn -1 0 -2.60209e-16 
f 1//1 2//2 3//3 
o mesh1
v -1.73472e-17 -0.04 0.005 
v 0.015 -0.04 0.005 
v 0.015 -0.005 0.04 
v -2.19009e-17 -0.005 0.04 
vn -1.83995e-16 -0.707107 0.707107 
vn -1.83995e-16 -0.707107 0.707107 
vn -1.83995e-16 -0.707107 0.707107 
vn -1.83995e-16 -0.707107 0.707107 
f 4//4 5//5 6//6 
f 6//6 7//7 4//4 
o mesh2
v -2.19009e-17 -0.005 0.04 
v -1.38778e-17 -0.005 0.005 
v -1.73472e-17 -0.04 0.005 
vn -1 0 -2.60209e-16 
vn -1 0 -2.60209e-16 
vn -1 0 -2.60209e-16 
f 8//8 9//9 10//10 
o mesh3
v -0.02 -0.005 0.005 
v -0.02 -0.04 0.005 
v -1.73472e-17 -0.04 0.005 
v -1.38778e-17 -0.005 0.005 
vn -1.22465e-16 0 1 
vn -1.22465e-16 0 1 
vn -1.22465e-16 0 1 
vn -1.22465e-16 0 1 
f 11//11 12//12 13//13 
f 13//13 14//14 11//11 
o mesh4
v -0.02 -0.005 0.005 
v -1.38778e-17 -0.005 0.005 
v -2.19009e-17 -0.005 0.04 
v -0.02 -0.005 0.04 
vn 0 -1 0 
vn 0 -1 0 
vn 0 -1 0 
vn 0 -1 0 
f 15//15 16//16 17//17 
f 17//17 18//18 15//15 
o mesh5
v 0.02 -0.04 1.36284e-18 
v 0.015 -0.04 0.005 
v -1.73472e-17 -0.04 0.005 
v -0.02 -0.04 -6.93889e-18 
v 0.02 -0.04 0.04 
v 0.015 -0.04 0.04 
v -0.02 -0.04 0.005 
vn 0 -1 0 
vn 0 -1 0 
vn 0 -1 0 
vn 0 -1 0 
vn 0 -1 0 
vn 0 -1 0 
vn 0 -1 0 
f 19//19 20//20 21//21 
f 21//21 22//22 19//19 
f 23//23 24//24 20//20 
f 20//20 19//19 23//23 
f 21//21 25//25 22//22 
o mesh6
v 0.02 0 0.04 
v -0.02 0 0.04 
v -2.19009e-17 -0.005 0.04 
v 0.02 -0.04 0.04 
v 0.015 -0.005 0.04 
v -0.02 -0.005 0.04 
v 0.015 -0.04 0.04 
vn -1.22465e-16 0 1 
vn -1.22465e-16 0 1 
vn -1.22465e-16 0 1 
vn -1.22465e-16 0 1 
vn -1.22465e-16 0 1 
vn -1.22465e-16 0 1 
vn -1.22465e-16 0 1 
f 26//26 27//27 28//28 
f 29//29 26//26 30//30 
f 27//27 31//31 28//28 
f 28//28 30//30 26//26 
f 30//30 32//32 29//29 
o mesh7
v -0.02 0 0.04 
v -0.02 0 -6.93889e-18 
v -0.02 -0.005 0.005 
v -0.02 -0.04 -6.93889e-18 
v -0.02 -0.04 0.005 
v -0.02 -0.005 0.04 
vn -1 0 -2.60209e-16 
vn -1 0 -2.60209e-16 
vn -1 0 -2.60209e-16 
vn -1 0 -2.60209e-16 
vn -1 0 -2.60209e-16 
vn -1 0 -2.60209e-16 
f 33//33 34//34 35//35 
f 36//36 37//37 35//35 
f 35//35 34//34 36//36 
f 35//35 38//38 33//33 
o mesh8
v 0.02 -0.04 1.36284e-18 
v 0.02 0 1.36284e-18 
v 0.02 0 0.04 
v 0.02 -0.04 0.04 
vn 1 0 2.60209e-16 
vn 1 0 2.60209e-16 
vn 1 0 2.60209e-16 
vn 1 0 2.60209e-16 
f 39//39 40//40 41//41 
f 41//41 42//42 39//39 
o mesh9
v -0.02 -0.04 -6.93889e-18 
v -0.02 0 -6.93889e-18 
v 0.02 0 1.36284e-18 
v 0.02 -0.04 1.36284e-18 
vn 1.22465e-16 0 -1 
vn 1.22465e-16 0 -1 
vn 1.22465e-16 0 -1 
vn 1.22465e-16 0 -1 
f 43//43 44//44 45//45 
f 45//45 46//46 43//43 
o mesh10
v -0.02 0 0.04 
v 0.02 0 0.04 
v 0.02 0 1.36284e-18 
v -0.02 0 -6.93889e-18 
vn 0 1 0 
vn 0 1 0 
vn 0 1 0 
vn 0 1 0 
f 47//47 48//48 49//49 
f 49//49 50//50 47//47 
