mtllib E3-Rep03-p03.mtl
g Part 3
usemtl 0.541176_0.682353_0.839216_0.000000_0.000000
o mesh0
v -0.08 -0.04 -7.80626e-18 
v -0.08 0 -7.80626e-18 
v -0.04 0 -6.93889e-18 
v -0.04 -0.04 -6.93889e-18 
vn 0 0 -1 
vn 0 0 -1 
vn 0 0 -1 
vn 0 0 -1 
f 1//1 2//2 3//3 
f 3//3 4//4 1//1 
o mesh1
v -0.04 -0.04 -6.93889e-18 
v -0.04 -0.04 0.005 
v -0.08 -0.04 0.005 
v -0.08 -0.04 -7.80626e-18 
vn 0 -1 0 
vn 0 -1 0 
vn 0 -1 0 
vn 0 -1 0 
f 5//5 6//6 7//7 
f 7//7 8//8 5//5 
o mesh2
v -0.04 -0.015 0.005 
v -0.08 -0.015 0.005 
v -0.08 -0.04 0.005 
v -0.04 -0.04 0.005 
vn 0 0 1 
vn 0 0 1 
vn 0 0 1 
vn 0 0 1 
f 9//9 10//10 11//11 
f 11//11 12//12 9//9 
o mesh3
v -0.08 0 0.02 
v -0.08 0 -7.80626e-18 
v -0.08 -0.015 0.005 
v -0.08 -0.04 -7.80626e-18 
v -0.08 -0.04 0.005 
v -0.08 -0.015 0.02 
vn -1 0 0 
vn -1 0 0 
vn -1 0 0 
vn -1 0 0 
vn -1 0 0 
vn -1 0 0 
f 13//13 14//14 15//15 
f 16//16 17//17 15//15 
f 15//15 14//14 16//16 
f 15//15 18//18 13//13 
o mesh4
v -0.04 -0.04 -6.93889e-18 
v -0.04 0 -6.93889e-18 
v -0.04 -0.015 0.005 
v -0.04 0 0.03 
v -0.04 -0.015 0.03 
v -0.04 -0.04 0.005 
vn 1 0 0 
vn 1 0 0 
vn 1 0 0 
vn 1 0 0 
vn 1 0 0 
vn 1 0 0 
f 19//19 20//20 21//21 
f 22//22 23//23 21//21 
f 21//21 20//20 22//22 
f 21//21 24//24 19//19 
o mesh5
v -0.08 -0.015 0.005 
v -0.04 -0.015 0.005 
v -0.06 -0.015 0.02 
v -0.04 -0.015 0.03 
v -0.06 -0.015 0.03 
v -0.08 -0.015 0.02 
vn 0 -1 0 
vn 0 -1 0 
vn 0 -1 0 
vn 0 -1 0 
vn 0 -1 0 
vn 0 -1 0 
f 25//25 26//26 27//27 
f 28//28 29//29 27//27 
f 27//27 26//26 28//28 
f 27//27 30//30 25//25 
o mesh6
v -0.04 0 0.03 
v -0.04 0 -6.93889e-18 
v -0.06 0 0.02 
v -0.08 0 -7.80626e-18 
v -0.08 0 0.02 
v -0.06 0 0.03 
vn 0 1 0 
vn 0 1 0 
vn 0 1 0 
vn 0 1 0 
vn 0 1 0 
vn 0 1 0 
f 31//31 32//32 33//33 
f 34//34 35//35 33//33 
f 33//33 32//32 34//34 
f 33//33 36//36 31//31 
o mesh7
v -0.04 -0.015 0.03 
v -0.04 0 0.03 
v -0.06 0 0.03 
v -0.06 -0.015 0.03 
vn 0 0 1 
vn 0 0 1 
vn 0 0 1 
vn 0 0 1 
f 37//37 38//38 39//39 
f 39//39 40//40 37//37 
o mesh8
v -0.06 -0.015 0.03 
v -0.06 0 0.03 
v -0.06 0 0.02 
v -0.06 -0.015 0.02 
vn -1 0 0 
vn -1 0 0 
vn -1 0 0 
vn -1 0 0 
f 41//41 42//42 43//43 
f 43//43 44//44 41//41 
o mesh9
v -0.06 -0.015 0.02 
v -0.06 0 0.02 
v -0.08 0 0.02 
v -0.08 -0.015 0.02 
vn 0 0 1 
vn 0 0 1 
vn 0 0 1 
vn 0 0 1 
f 45//45 46//46 47//47 
f 47//47 48//48 45//45 
