# Wavefront OBJ exported by MilkShape 3D

mtllib penguin.mtl

v 0.004520 0.000000 -0.363459
v 0.179520 0.000000 -0.315091
v 0.004520 0.000000 -0.002436
v 0.004520 1.390251 -0.363459
v 0.003921 1.528259 0.001508
v 0.179520 1.390251 -0.315091
v 0.004520 0.000000 -0.363459
v 0.004520 0.231709 -0.363459
v 0.179520 0.231709 -0.315091
v 0.179520 0.000000 -0.315091
v 0.004520 0.463417 -0.363459
v 0.179520 0.463417 -0.315091
v 0.004520 0.695126 -0.363459
v 0.179520 0.695126 -0.315091
v 0.004520 0.926834 -0.363459
v 0.179520 0.926834 -0.315091
v 0.004520 1.158543 -0.363459
v 0.179520 1.158543 -0.315091
v 0.179520 1.390251 -0.315091
v 0.307629 0.000000 -0.182947
v 0.307629 1.390251 -0.182947
v 0.307629 0.000000 -0.182947
v 0.307629 0.231709 -0.182947
v 0.307629 0.598169 -0.190039
v 0.564039 0.498249 -0.126210
v 0.307629 0.926834 -0.182947
v 0.307629 1.158543 -0.182947
v 0.307629 1.390251 -0.182947
v 0.398252 0.000000 -0.002436
v 0.357725 1.393456 -0.002436
v 0.354520 0.231709 -0.002436
v 0.398252 0.000000 -0.002436
v 0.354520 0.598169 -0.009528
v 0.562854 0.498249 0.054302
v 0.354520 0.926834 -0.002436
v 0.354520 1.158543 -0.002436
v 0.357725 1.393456 -0.002436
v 0.459436 0.000000 0.267506
v 0.310834 1.393456 0.178076
v 0.459436 -0.003546 0.270774
v 0.307629 0.231709 0.178076
v 0.307629 0.598169 0.170984
v 0.307629 0.695126 0.178076
v 0.307629 0.926834 0.178076
v 0.307629 1.158543 0.178076
v 0.310834 1.393456 0.178076
v 0.432828 0.000000 0.337957
v 0.186048 1.393456 0.310219
v 0.182843 0.231709 0.310219
v 0.429623 0.000000 0.341225
v 0.164672 0.000000 0.372190
v 0.182843 0.463417 0.310219
v 0.186048 0.695126 0.310219
v 0.186048 0.926834 0.310219
v 0.186048 1.158543 0.310219
v 0.186048 1.393456 0.310219
v 0.164618 0.000000 0.372190
v 0.004520 0.000000 0.358587
v 0.007725 1.393456 0.358587
v 0.004520 0.000000 0.358587
v 0.004520 0.231709 0.358587
v 0.004520 0.463417 0.358587
v 0.007725 0.695126 0.358587
v 0.007725 1.008394 0.564261
v 0.007725 1.158543 0.358587
v 0.007725 1.393456 0.358587
v -0.136104 0.000000 0.375512
v -0.167275 1.393456 0.310219
v -0.170480 0.231709 0.310219
v -0.136104 0.000000 0.375512
v -0.170480 0.463417 0.310219
v -0.167275 0.695126 0.310219
v -0.167275 0.926834 0.310219
v -0.167275 1.158543 0.310219
v -0.167275 1.393456 0.310219
v -0.299488 0.000000 0.354731
v -0.295384 1.393456 0.178076
v -0.384502 0.000000 0.334374
v -0.449582 0.000000 0.274150
v -0.298589 0.231709 0.178076
v -0.279358 0.638403 0.124884
v -0.298589 0.695126 0.178076
v -0.298589 0.926834 0.178076
v -0.298589 1.158543 0.178076
v -0.295384 1.393456 0.178076
v -0.449582 0.000000 0.274150
v -0.380465 0.000000 0.000480
v -0.380176 1.393456 -0.004004
v -0.345480 0.231709 -0.002436
v -0.380465 0.000000 0.000480
v -0.313428 0.578802 -0.002436
v -0.550608 0.544484 -0.002436
v -0.345480 0.926834 -0.002436
v -0.380465 1.158543 0.000480
v -0.380176 1.393456 -0.004004
v -0.298589 0.000000 -0.182947
v -0.298589 1.390251 -0.193262
v -0.298589 0.000000 -0.182947
v -0.298589 0.231709 -0.182947
v -0.266537 0.631993 -0.236139
v -0.503717 0.544484 -0.182947
v -0.298589 0.926834 -0.182947
v -0.298589 1.158543 -0.182947
v -0.298589 1.390251 -0.193262
v -0.170480 0.000000 -0.315091
v -0.170480 1.390251 -0.325406
v -0.170480 0.231709 -0.315091
v -0.170480 0.000000 -0.315091
v -0.170480 0.463417 -0.315091
v -0.170480 0.695126 -0.315091
v -0.170480 0.926834 -0.315091
v -0.170480 1.158543 -0.315091
v -0.170480 1.390251 -0.325406
v 0.004520 0.000000 -0.363459
v 0.004520 0.231709 -0.363459
v 0.004520 0.463417 -0.363459
v 0.004520 0.695126 -0.363459
v 0.004520 0.926834 -0.363459
v 0.004520 1.158543 -0.363459
v 0.004520 1.390251 -0.363459
v -0.384502 0.000000 0.334374
v -0.299488 0.000000 0.354731
v 0.341206 0.000000 0.376315
v 0.339631 0.000000 0.373047
# 124 vertices

vt 0.000000 1.000000
vt 0.000000 0.000000
vt 0.000000 0.166667
vt 0.083333 0.166667
vt 0.083333 0.000000
vt 0.000000 0.333333
vt 0.083333 0.333333
vt 0.000000 0.500000
vt 0.083333 0.500000
vt 0.000000 0.666667
vt 0.083333 0.666667
vt 0.000000 0.833333
vt 0.083333 0.833333
vt 0.083333 1.000000
vt 0.166667 0.000000
vt 0.166667 0.166667
vt 0.166667 0.333333
vt 0.166667 0.500000
vt 0.166667 0.666667
vt 0.166667 0.833333
vt 0.166667 1.000000
vt 0.250000 0.166667
vt 0.250000 0.000000
vt 0.250000 0.333333
vt 0.250000 0.500000
vt 0.250000 0.666667
vt 0.250000 0.833333
vt 0.250000 1.000000
vt 0.333333 0.000000
vt 0.333333 0.166667
vt 0.333333 0.333333
vt 0.333333 0.500000
vt 0.333333 0.666667
vt 0.333333 0.833333
vt 0.333333 1.000000
vt 0.416667 0.166667
vt 0.395833 0.000000
vt 0.416667 0.000000
vt 0.416667 0.333333
vt 0.416667 0.500000
vt 0.416667 0.666667
vt 0.416667 0.833333
vt 0.416667 1.000000
vt 0.500000 0.000000
vt 0.500000 0.166667
vt 0.500000 0.333333
vt 0.500000 0.500000
vt 0.500000 0.666667
vt 0.500000 0.833333
vt 0.500000 1.000000
vt 0.583333 0.166667
vt 0.583333 0.000000
vt 0.583333 0.333333
vt 0.583333 0.500000
vt 0.583333 0.666667
vt 0.583333 0.833333
vt 0.583333 1.000000
vt 0.645833 0.000000
vt 0.666667 0.000000
vt 0.666667 0.166667
vt 0.666667 0.333333
vt 0.666667 0.500000
vt 0.666667 0.666667
vt 0.666667 0.833333
vt 0.666667 1.000000
vt 0.750000 0.166667
vt 0.750000 0.000000
vt 0.750000 0.333333
vt 0.750000 0.500000
vt 0.750000 0.666667
vt 0.750000 0.833333
vt 0.750000 1.000000
vt 0.833333 0.000000
vt 0.833333 0.166667
vt 0.833333 0.333333
vt 0.833333 0.500000
vt 0.833333 0.666667
vt 0.833333 0.833333
vt 0.833333 1.000000
vt 0.916667 0.166667
vt 0.916667 0.000000
vt 0.916667 0.333333
vt 0.916667 0.500000
vt 0.916667 0.666667
vt 0.916667 0.833333
vt 0.916667 1.000000
vt 1.000000 0.000000
vt 1.000000 0.166667
vt 1.000000 0.333333
vt 1.000000 0.500000
vt 1.000000 0.666667
vt 1.000000 0.833333
vt 1.000000 1.000000
vt 0.375000 0.000000
vt 0.625000 0.000000
# 95 texture coordinates

vn 0.000000 -1.000000 0.000000
vn 0.010313 0.935317 -0.353662
vn 0.006714 0.999974 -0.002607
vn 0.182330 0.934355 -0.306164
vn 0.266400 0.000000 -0.963863
vn 0.507101 -0.001743 -0.861885
vn 0.510080 0.000000 -0.860127
vn 0.498172 0.000000 -0.867078
vn 0.387370 -0.094465 -0.917072
vn 0.310238 0.932161 -0.186623
vn 0.843421 0.042702 -0.535554
vn 0.871748 -0.004741 -0.489932
vn 0.599649 -0.540608 -0.590054
vn 0.420360 -0.590868 -0.688601
vn 0.856868 0.149816 -0.493288
vn 0.871755 0.000000 -0.489942
vn 0.869737 -0.003396 -0.493504
vn 0.355912 0.934454 -0.011068
vn 0.987965 0.123585 -0.093018
vn 0.927605 0.175073 -0.329998
vn 0.514327 -0.857567 0.006855
vn 0.690633 -0.444336 0.570607
vn 0.974410 0.224771 -0.001540
vn 0.999985 -0.005111 -0.002041
vn 0.999874 -0.013642 -0.008167
vn 0.311513 0.934544 0.172010
vn 0.800863 0.560781 0.210102
vn 0.827939 0.324061 0.457713
vn 0.763178 -0.158339 0.626489
vn 0.587021 -0.029743 0.809025
vn 0.817196 0.059490 0.573282
vn 0.878058 -0.005990 0.478517
vn 0.876476 -0.009400 0.481353
vn 0.180956 0.935990 0.301956
vn 0.414045 0.255580 0.873639
vn 0.150440 0.352267 0.923729
vn -0.043219 0.261289 0.964293
vn 0.526372 -0.003649 0.850246
vn 0.598969 -0.079824 0.796783
vn 0.778885 0.000000 0.627167
vn 0.603584 0.107182 0.790062
vn 0.513660 0.000000 0.857994
vn -0.001146 0.935549 0.353196
vn 0.007285 0.141365 0.989931
vn -0.002395 0.000000 0.999997
vn -0.002316 -0.287916 0.957653
vn -0.003325 0.102793 0.994697
vn -0.002167 0.458239 0.888826
vn -0.182614 0.934144 0.306637
vn -0.407512 0.233945 0.882725
vn -0.003806 0.270700 0.962656
vn -0.606953 0.004189 0.794727
vn -0.597857 -0.161607 0.785144
vn -0.769505 0.000000 0.638641
vn -0.591818 0.109441 0.798608
vn -0.510080 0.000000 0.860127
vn -0.298215 0.931997 0.206032
vn -0.403786 0.455664 0.793301
vn -0.791480 0.527984 0.307884
vn -0.809152 0.373341 0.453750
vn -0.749609 -0.304736 0.587557
vn -0.528001 -0.377833 0.760563
vn -0.804641 0.041014 0.592344
vn -0.821282 0.005603 0.570495
vn -0.822482 0.007926 0.568736
vn -0.331140 0.943581 -0.001338
vn -0.984423 0.153427 -0.085860
vn -0.935908 0.137230 -0.324413
vn -0.698970 -0.708127 0.099979
vn -0.701826 -0.569867 0.427424
vn -0.985185 0.171494 -0.000061
vn -0.999196 -0.039548 0.006539
vn -0.999894 0.001509 0.014447
vn -0.293845 0.933585 -0.205119
vn -0.849878 0.033798 -0.525895
vn -0.871741 0.002344 -0.489962
vn -0.609720 -0.509382 -0.607265
vn -0.371873 -0.571096 -0.731820
vn -0.829031 0.136751 -0.542224
vn -0.828168 -0.012470 -0.560341
vn -0.829848 -0.021976 -0.557557
vn -0.170081 0.937087 -0.304860
vn -0.497740 -0.004518 -0.867315
vn -0.510080 0.000000 -0.860127
vn -0.460724 0.000000 -0.887543
vn -0.369590 -0.088951 -0.924928
vn -0.504089 -0.013684 -0.863544
vn -0.485693 -0.038875 -0.873265
vn -0.266400 0.000000 -0.963863
vn -0.239489 -0.021743 -0.970656
vn 0.513142 0.625209 0.588047
vn -0.172345 0.277520 0.945135
# 92 normals

g Cylinder01
usemtl Material01
s 2
f 1/1/1 2/1/1 3/1/1
f 4/1/2 5/1/3 6/1/4
s 1
f 7/2/5 8/3/5 9/4/6
f 7/2/5 9/4/6 10/5/7
f 8/3/5 11/6/5 9/4/6
f 11/6/5 12/7/8 9/4/6
f 11/6/5 13/8/5 14/9/9
f 11/6/5 14/9/9 12/7/8
f 13/8/5 15/10/5 14/9/9
f 15/10/5 16/11/7 14/9/9
f 15/10/5 17/12/5 18/13/7
f 15/10/5 18/13/7 16/11/7
f 17/12/5 4/1/5 18/13/7
f 4/1/5 19/14/7 18/13/7
s 2
f 2/1/1 20/1/1 3/1/1
f 6/1/4 5/1/3 21/1/10
s 1
f 10/5/7 9/4/6 22/15/11
f 9/4/6 23/16/12 22/15/11
f 9/4/6 12/7/8 24/17/13
f 9/4/6 24/17/13 23/16/12
f 12/7/8 14/9/9 24/17/13
f 14/9/9 25/18/14 24/17/13
f 14/9/9 16/11/7 26/19/15
f 14/9/9 26/19/15 25/18/14
f 16/11/7 18/13/7 26/19/15
f 18/13/7 27/20/16 26/19/15
f 18/13/7 19/14/7 28/21/17
f 18/13/7 28/21/17 27/20/16
s 2
f 20/1/1 29/1/1 3/1/1
f 21/1/10 5/1/3 30/1/18
s 1
f 22/15/11 23/16/12 31/22/19
f 22/15/11 31/22/19 32/23/20
f 23/16/12 24/17/13 31/22/19
f 24/17/13 33/24/21 31/22/19
f 24/17/13 25/18/14 34/25/22
f 24/17/13 34/25/22 33/24/21
f 25/18/14 26/19/15 34/25/22
f 26/19/15 35/26/23 34/25/22
f 26/19/15 27/20/16 36/27/24
f 26/19/15 36/27/24 35/26/23
f 27/20/16 28/21/17 36/27/24
f 28/21/17 37/28/25 36/27/24
s 2
f 29/1/1 38/1/1 3/1/1
f 30/1/18 5/1/3 39/1/26
s 1
f 32/23/20 31/22/19 40/29/27
f 31/22/19 41/30/28 40/29/27
f 31/22/19 33/24/21 42/31/29
f 31/22/19 42/31/29 41/30/28
f 33/24/21 34/25/22 42/31/29
f 34/25/22 43/32/30 42/31/29
f 34/25/22 35/26/23 44/33/31
f 34/25/22 44/33/31 43/32/30
f 35/26/23 36/27/24 44/33/31
f 36/27/24 45/34/32 44/33/31
f 36/27/24 37/28/25 46/35/33
f 36/27/24 46/35/33 45/34/32
s 2
f 38/1/1 47/1/1 3/1/1
f 39/1/26 5/1/3 48/1/34
s 1
f 40/29/27 41/30/28 49/36/35
f 124/37/36 49/36/35 51/38/37
f 41/30/28 42/31/29 49/36/35
f 42/31/29 52/39/38 49/36/35
f 42/31/29 43/32/30 53/40/39
f 42/31/29 53/40/39 52/39/38
f 43/32/30 44/33/31 53/40/39
f 44/33/31 54/41/40 53/40/39
f 44/33/31 45/34/32 55/42/41
f 44/33/31 55/42/41 54/41/40
f 45/34/32 46/35/33 55/42/41
f 46/35/33 56/43/42 55/42/41
s 2
f 57/1/1 58/1/1 3/1/1
f 48/1/34 5/1/3 59/1/43
s 1
f 51/38/37 49/36/35 60/44/44
f 49/36/35 61/45/45 60/44/44
f 49/36/35 52/39/38 62/46/45
f 49/36/35 62/46/45 61/45/45
f 52/39/38 53/40/39 62/46/45
f 53/40/39 63/47/46 62/46/45
f 53/40/39 54/41/40 64/48/47
f 53/40/39 64/48/47 63/47/46
f 54/41/40 55/42/41 64/48/47
f 55/42/41 65/49/48 64/48/47
f 55/42/41 56/43/42 66/50/45
f 55/42/41 66/50/45 65/49/48
s 2
f 58/1/1 67/1/1 3/1/1
f 59/1/43 5/1/3 68/1/49
s 1
f 60/44/44 61/45/45 69/51/50
f 60/44/44 69/51/50 70/52/51
f 61/45/45 62/46/45 69/51/50
f 62/46/45 71/53/52 69/51/50
f 62/46/45 63/47/46 72/54/53
f 62/46/45 72/54/53 71/53/52
f 63/47/46 64/48/47 72/54/53
f 64/48/47 73/55/54 72/54/53
f 64/48/47 65/49/48 74/56/55
f 64/48/47 74/56/55 73/55/54
f 65/49/48 66/50/45 74/56/55
f 66/50/45 75/57/56 74/56/55
s 2
f 67/1/1 76/1/1 3/1/1
f 68/1/49 5/1/3 77/1/57
s 1
f 78/58/58 69/51/50 79/59/59
f 69/51/50 80/60/60 79/59/59
f 69/51/50 71/53/52 81/61/61
f 69/51/50 81/61/61 80/60/60
f 71/53/52 72/54/53 81/61/61
f 72/54/53 82/62/62 81/61/61
f 72/54/53 73/55/54 83/63/63
f 72/54/53 83/63/63 82/62/62
f 73/55/54 74/56/55 83/63/63
f 74/56/55 84/64/64 83/63/63
f 74/56/55 75/57/56 85/65/65
f 74/56/55 85/65/65 84/64/64
s 2
f 86/1/1 87/1/1 3/1/1
f 77/1/57 5/1/3 88/1/66
s 1
f 79/59/59 80/60/60 89/66/67
f 79/59/59 89/66/67 90/67/68
f 80/60/60 81/61/61 89/66/67
f 81/61/61 91/68/69 89/66/67
f 81/61/61 82/62/62 92/69/70
f 81/61/61 92/69/70 91/68/69
f 82/62/62 83/63/63 92/69/70
f 83/63/63 93/70/71 92/69/70
f 83/63/63 84/64/64 94/71/72
f 83/63/63 94/71/72 93/70/71
f 84/64/64 85/65/65 94/71/72
f 85/65/65 95/72/73 94/71/72
s 2
f 87/1/1 96/1/1 3/1/1
f 88/1/66 5/1/3 97/1/74
s 1
f 90/67/68 89/66/67 98/73/75
f 89/66/67 99/74/76 98/73/75
f 89/66/67 91/68/69 100/75/77
f 89/66/67 100/75/77 99/74/76
f 91/68/69 92/69/70 100/75/77
f 92/69/70 101/76/78 100/75/77
f 92/69/70 93/70/71 102/77/79
f 92/69/70 102/77/79 101/76/78
f 93/70/71 94/71/72 102/77/79
f 94/71/72 103/78/80 102/77/79
f 94/71/72 95/72/73 104/79/81
f 94/71/72 104/79/81 103/78/80
s 2
f 96/1/1 105/1/1 3/1/1
f 97/1/74 5/1/3 106/1/82
s 1
f 98/73/75 99/74/76 107/80/83
f 98/73/75 107/80/83 108/81/84
f 99/74/76 100/75/77 107/80/83
f 100/75/77 109/82/85 107/80/83
f 100/75/77 101/76/78 110/83/86
f 100/75/77 110/83/86 109/82/85
f 101/76/78 102/77/79 110/83/86
f 102/77/79 111/84/84 110/83/86
f 102/77/79 103/78/80 112/85/87
f 102/77/79 112/85/87 111/84/84
f 103/78/80 104/79/81 112/85/87
f 104/79/81 113/86/88 112/85/87
s 2
f 105/1/1 1/1/1 3/1/1
f 106/1/82 5/1/3 4/1/2
s 1
f 108/81/84 107/80/83 114/87/89
f 107/80/83 115/88/89 114/87/89
f 107/80/83 109/82/85 116/89/89
f 107/80/83 116/89/89 115/88/89
f 109/82/85 110/83/86 116/89/89
f 110/83/86 117/90/89 116/89/89
f 110/83/86 111/84/84 118/91/89
f 110/83/86 118/91/89 117/90/89
f 111/84/84 112/85/87 118/91/89
f 112/85/87 119/92/89 118/91/89
f 112/85/87 113/86/88 120/93/90
f 112/85/87 120/93/90 119/92/89
f 47/1/1 123/1/1 3/1/1
f 50/94/91 40/29/27 49/36/35
f 76/1/1 121/1/1 3/1/1
f 122/95/92 70/52/51 69/51/50
f 78/58/58 122/95/92 69/51/50
f 121/1/1 86/1/1 3/1/1
f 123/1/1 57/1/1 3/1/1
f 124/37/36 50/94/91 49/36/35
# 176 triangles in group

# 176 triangles total

